<?xml version="1.0" encoding="UTF-8"?><svg id="Layer_2" xmlns="http://www.w3.org/2000/svg" viewBox="0 0 43.89 43.89"><defs><style>.cls-1{fill:none;stroke:#47a6ac;stroke-linecap:round;stroke-linejoin:round;stroke-width:2px;}</style></defs><g id="Layer_1-2"><polyline class="cls-1" points="37.27 37.73 42.87 32.13 38.01 30.07 35.57 22.58 17.69 15.36 16.29 16.76"/><line class="cls-1" x1="33.81" y1="34.28" x2="38.01" y2="30.07"/><line class="cls-1" x1="26.09" y1="26.09" x2="16.53" y2="16.53"/><circle class="cls-1" cx="12.88" cy="12.88" r="2.64"/><circle class="cls-1" cx="28.52" cy="28.52" r="3.43"/><circle class="cls-1" cx="23.11" cy="2.65" r="1.65"/><line class="cls-1" x1="14.75" y1="11.01" x2="21.94" y2="3.82"/><path class="cls-1" d="M38.29,11.48s-12.06-9.39-23.44-.36"/><rect class="cls-1" x="37.7" y="10.89" width="4.3" height="4.3" transform="translate(2.45 32) rotate(-45)"/><polyline class="cls-1" points="37.73 37.27 32.13 42.87 30.07 38.01 22.58 35.57 15.36 17.69 16.76 16.29"/><line class="cls-1" x1="34.28" y1="33.81" x2="30.07" y2="38.01"/><circle class="cls-1" cx="2.65" cy="23.11" r="1.65"/><line class="cls-1" x1="11.01" y1="14.75" x2="3.82" y2="21.94"/><path class="cls-1" d="M11.48,38.29s-9.39-12.06-.36-23.44"/><rect class="cls-1" x="10.89" y="37.7" width="4.3" height="4.3" transform="translate(50.44 58.81) rotate(135)"/></g></svg>