<?xml version="1.0" encoding="UTF-8"?><svg id="Layer_2" xmlns="http://www.w3.org/2000/svg" viewBox="0 0 41.91 38.12"><defs><style>.cls-1{fill:none;stroke:#47a6ac;stroke-linecap:round;stroke-linejoin:round;stroke-width:2.5px;}</style></defs><g id="Layer_1-2"><path class="cls-1" d="M40.66,6.63v15c0,2.97-2.41,5.38-5.38,5.38h-18.63l-5.29,9.86-4.74-9.86c-2.97,0-5.38-2.41-5.38-5.38V6.63C1.25,3.66,3.66,1.25,6.63,1.25h28.65c2.97,0,5.38,2.41,5.38,5.38Z"/><path class="cls-1" d="M8.92,20.06l2.39-9.28c.21-.8.92-1.35,1.75-1.35h0c.82,0,1.54.56,1.75,1.35l2.39,9.28"/><line class="cls-1" x1="16.05" y1="15.62" x2="10.06" y2="15.62"/><line class="cls-1" x1="23.26" y1="10.24" x2="32.99" y2="10.24"/><line class="cls-1" x1="28.13" y1="7.99" x2="28.13" y2="10.24"/><path class="cls-1" d="M31.62,20.06s-6.97-4.73-6.97-9.82"/><path class="cls-1" d="M24.63,20.06s6.97-4.73,6.97-9.82"/></g></svg>